<svg xmlns="http://www.w3.org/2000/svg" viewBox="0 0 512 512" role="img" aria-label="KODA"><defs><linearGradient id="k" x1="0" y1="0" x2="1" y2="1"><stop stop-color="#18e0ef"/><stop offset=".5" stop-color="#1198f2"/><stop offset="1" stop-color="#0758bd"/></linearGradient></defs><rect width="512" height="512" rx="116" fill="#071a34"/><path d="M256 96a160 160 0 0 1 136 76l26-26v96h-96l32-32a110 110 0 0 0-188-14l-44-28A160 160 0 0 1 256 96Z" fill="url(#k)"/><path d="M256 416a160 160 0 0 1-136-76l-26 26v-96h96l-32 32a110 110 0 0 0 188 14l44 28A160 160 0 0 1 256 416Z" fill="url(#k)"/></svg>