<svg xmlns="http://www.w3.org/2000/svg" viewBox="0 0 256 256" role="img" aria-label="KODA"><defs><linearGradient id="g" x1="20" y1="18" x2="226" y2="238" gradientUnits="userSpaceOnUse"><stop stop-color="#4db8ff"/><stop offset=".48" stop-color="#1d8cff"/><stop offset="1" stop-color="#0962d9"/></linearGradient></defs><path d="M46 42c0-13 10-23 23-23h4c13 0 23 10 23 23v61l72-76h58l-91 96 96 105h-61l-74-80v66c0 13-10 23-23 23h-4c-13 0-23-10-23-23V42Z" fill="url(#g)"/><path d="M97 103 168 27h58l-72 76-27 28-30-28Z" fill="#65c4ff" opacity=".95"/><path d="m128 131 26-28 77 85-3 40h-58l-74-80 32-17Z" fill="#0f72e8" opacity=".98"/></svg>